HIERARCHY
ROOT Hips
{
	OFFSET 0.000000 97.167313 0.000000
	CHANNELS 6 Xposition Yposition Zposition Xrotation Yrotation Zrotation
	JOINT Spine
	{
		OFFSET 0.000000 13.784798 0.064400
		CHANNELS 3 Xrotation Yrotation Zrotation
		JOINT Spine1
		{
			OFFSET 0.000000 12.037903 0.404700
			CHANNELS 3 Xrotation Yrotation Zrotation
			JOINT Spine2
			{
				OFFSET 0.000000 17.795601 0.420200
				CHANNELS 3 Xrotation Yrotation Zrotation
				JOINT Neck
				{
					OFFSET 0.000000 39.131302 11.954600
					CHANNELS 3 Xrotation Yrotation Zrotation
					JOINT Head
					{
						OFFSET 0.000000 14.456192 15.627699
						CHANNELS 3 Xrotation Yrotation Zrotation
						JOINT HeadTop_End
						{
							OFFSET 0.000000 15.703506 7.603401
							CHANNELS 3 Xrotation Yrotation Zrotation
							End Site
							{
								OFFSET 0.000000 17.447403 0.000000
							}
						}
					}
				}
				JOINT LeftShoulder
				{
					OFFSET 17.399500 24.608795 1.168800
					CHANNELS 3 Xrotation Yrotation Zrotation
					JOINT LeftArm
					{
						OFFSET 18.980635 5.765305 1.818600
						CHANNELS 3 Xrotation Yrotation Zrotation
						JOINT LeftForeArm
						{
							OFFSET 49.290169 0.000000 0.000000
							CHANNELS 3 Xrotation Yrotation Zrotation
							JOINT LeftHand
							{
								OFFSET 31.562012 0.000000 0.000000
								CHANNELS 3 Xrotation Yrotation Zrotation
								JOINT LeftHandThumb1
								{
									OFFSET 6.133995 -4.388519 7.076070
									CHANNELS 3 Xrotation Yrotation Zrotation
									JOINT LeftHandThumb2
									{
										OFFSET 6.037666 -3.485840 3.485847
										CHANNELS 3 Xrotation Yrotation Zrotation
										JOINT LeftHandThumb3
										{
											OFFSET 6.496506 -3.750763 3.750761
											CHANNELS 3 Xrotation Yrotation Zrotation
											JOINT LeftHandThumb4
											{
												OFFSET 5.616882 -3.242905 3.242910
												CHANNELS 3 Xrotation Yrotation Zrotation
												End Site
												{
													OFFSET -1.254608 7.132141 0.375429
												}
											}
										}
									}
								}
								JOINT LeftHandPinky1
								{
									OFFSET 18.920792 -0.453171 -11.426712
									CHANNELS 3 Xrotation Yrotation Zrotation
									JOINT LeftHandPinky2
									{
										OFFSET 4.919586 0.000000 0.000000
										CHANNELS 3 Xrotation Yrotation Zrotation
										JOINT LeftHandPinky3
										{
											OFFSET 5.233047 0.000000 0.000000
											CHANNELS 3 Xrotation Yrotation Zrotation
											JOINT LeftHandPinky4
											{
												OFFSET 5.571716 0.000000 0.000000
												CHANNELS 3 Xrotation Yrotation Zrotation
												End Site
												{
													OFFSET -3.459808 4.342407 -0.466164
												}
											}
										}
									}
								}
								JOINT LeftHandRing1
								{
									OFFSET 22.726120 -0.094986 -6.500475
									CHANNELS 3 Xrotation Yrotation Zrotation
									JOINT LeftHandRing2
									{
										OFFSET 6.408615 0.000000 0.000000
										CHANNELS 3 Xrotation Yrotation Zrotation
										JOINT LeftHandRing3
										{
											OFFSET 6.150223 0.000000 0.000000
											CHANNELS 3 Xrotation Yrotation Zrotation
											JOINT LeftHandRing4
											{
												OFFSET 6.145386 0.000000 0.000000
												CHANNELS 3 Xrotation Yrotation Zrotation
												End Site
												{
													OFFSET -3.671402 4.923981 -0.202372
												}
											}
										}
									}
								}
								JOINT LeftHandMiddle1
								{
									OFFSET 23.373947 0.000000 0.000001
									CHANNELS 3 Xrotation Yrotation Zrotation
									JOINT LeftHandMiddle2
									{
										OFFSET 6.996567 0.000000 0.000000
										CHANNELS 3 Xrotation Yrotation Zrotation
										JOINT LeftHandMiddle3
										{
											OFFSET 7.015945 0.000000 0.000000
											CHANNELS 3 Xrotation Yrotation Zrotation
											JOINT LeftHandMiddle4
											{
												OFFSET 7.721573 0.000000 0.000000
												CHANNELS 3 Xrotation Yrotation Zrotation
												End Site
												{
													OFFSET -4.651108 6.158463 0.251582
												}
											}
										}
									}
								}
								JOINT LeftHandIndex1
								{
									OFFSET 21.310577 -0.490082 6.209344
									CHANNELS 3 Xrotation Yrotation Zrotation
									JOINT LeftHandIndex2
									{
										OFFSET 7.536453 0.000000 0.000000
										CHANNELS 3 Xrotation Yrotation Zrotation
										JOINT LeftHandIndex3
										{
											OFFSET 7.512344 0.000000 0.000000
											CHANNELS 3 Xrotation Yrotation Zrotation
											JOINT LeftHandIndex4
											{
												OFFSET 10.212402 0.000000 0.000001
												CHANNELS 3 Xrotation Yrotation Zrotation
												End Site
												{
													OFFSET -5.180801 8.690506 1.388433
												}
											}
										}
									}
								}
							}
						}
					}
				}
				JOINT RightShoulder
				{
					OFFSET -17.399500 24.608795 1.168800
					CHANNELS 3 Xrotation Yrotation Zrotation
					JOINT RightArm
					{
						OFFSET -18.980635 5.765305 1.818600
						CHANNELS 3 Xrotation Yrotation Zrotation
						JOINT RightForeArm
						{
							OFFSET -49.290169 0.000000 0.000000
							CHANNELS 3 Xrotation Yrotation Zrotation
							JOINT RightHand
							{
								OFFSET -31.562012 0.000000 0.000000
								CHANNELS 3 Xrotation Yrotation Zrotation
								JOINT RightHandThumb1
								{
									OFFSET -6.133995 -4.388519 7.076070
									CHANNELS 3 Xrotation Yrotation Zrotation
									JOINT RightHandThumb2
									{
										OFFSET -6.037666 -3.485840 3.485847
										CHANNELS 3 Xrotation Yrotation Zrotation
										JOINT RightHandThumb3
										{
											OFFSET -6.496506 -3.750763 3.750761
											CHANNELS 3 Xrotation Yrotation Zrotation
											JOINT RightHandThumb4
											{
												OFFSET -5.616882 -3.242905 3.242910
												CHANNELS 3 Xrotation Yrotation Zrotation
												End Site
												{
													OFFSET 1.254608 7.132141 0.375429
												}
											}
										}
									}
								}
								JOINT RightHandIndex1
								{
									OFFSET -21.310577 -0.490082 6.209344
									CHANNELS 3 Xrotation Yrotation Zrotation
									JOINT RightHandIndex2
									{
										OFFSET -7.536453 0.000000 0.000000
										CHANNELS 3 Xrotation Yrotation Zrotation
										JOINT RightHandIndex3
										{
											OFFSET -7.512344 0.000000 0.000000
											CHANNELS 3 Xrotation Yrotation Zrotation
											JOINT RightHandIndex4
											{
												OFFSET -10.212402 0.000000 0.000001
												CHANNELS 3 Xrotation Yrotation Zrotation
												End Site
												{
													OFFSET 5.180801 8.690506 1.388433
												}
											}
										}
									}
								}
								JOINT RightHandMiddle1
								{
									OFFSET -23.373947 0.000000 0.000001
									CHANNELS 3 Xrotation Yrotation Zrotation
									JOINT RightHandMiddle2
									{
										OFFSET -6.996567 0.000000 0.000000
										CHANNELS 3 Xrotation Yrotation Zrotation
										JOINT RightHandMiddle3
										{
											OFFSET -7.015945 0.000000 0.000000
											CHANNELS 3 Xrotation Yrotation Zrotation
											JOINT RightHandMiddle4
											{
												OFFSET -7.721573 0.000000 0.000000
												CHANNELS 3 Xrotation Yrotation Zrotation
												End Site
												{
													OFFSET 4.651108 6.158463 0.251582
												}
											}
										}
									}
								}
								JOINT RightHandRing1
								{
									OFFSET -22.726120 -0.094986 -6.500475
									CHANNELS 3 Xrotation Yrotation Zrotation
									JOINT RightHandRing2
									{
										OFFSET -6.408615 0.000000 0.000000
										CHANNELS 3 Xrotation Yrotation Zrotation
										JOINT RightHandRing3
										{
											OFFSET -6.150223 0.000000 0.000000
											CHANNELS 3 Xrotation Yrotation Zrotation
											JOINT RightHandRing4
											{
												OFFSET -6.145386 0.000000 0.000000
												CHANNELS 3 Xrotation Yrotation Zrotation
												End Site
												{
													OFFSET 3.671402 4.923981 -0.202372
												}
											}
										}
									}
								}
								JOINT RightHandPinky1
								{
									OFFSET -18.920792 -0.453171 -11.426712
									CHANNELS 3 Xrotation Yrotation Zrotation
									JOINT RightHandPinky2
									{
										OFFSET -4.919586 0.000000 0.000000
										CHANNELS 3 Xrotation Yrotation Zrotation
										JOINT RightHandPinky3
										{
											OFFSET -5.233047 0.000000 0.000000
											CHANNELS 3 Xrotation Yrotation Zrotation
											JOINT RightHandPinky4
											{
												OFFSET -5.571716 0.000000 0.000000
												CHANNELS 3 Xrotation Yrotation Zrotation
												End Site
												{
													OFFSET 3.459808 4.342407 -0.466164
												}
											}
										}
									}
								}
							}
						}
					}
				}
			}
		}
	}
	JOINT LeftUpLeg
	{
		OFFSET 19.899099 -7.885101 -3.429500
		CHANNELS 3 Xrotation Yrotation Zrotation
		JOINT LeftLeg
		{
			OFFSET 1.745560 -36.997807 10.304700
			CHANNELS 3 Xrotation Yrotation Zrotation
			JOINT LeftFoot
			{
				OFFSET -1.745558 -29.803308 -13.615400
				CHANNELS 3 Xrotation Yrotation Zrotation
				JOINT LeftToeBase
				{
					OFFSET 1.181900 -18.539904 15.226099
					CHANNELS 3 Xrotation Yrotation Zrotation
					JOINT LeftToe_End
					{
						OFFSET -0.863701 1.402801 16.534700
						CHANNELS 3 Xrotation Yrotation Zrotation
						End Site
						{
							OFFSET 0.000000 16.616566 0.000000
						}
					}
				}
			}
		}
	}
	JOINT RightUpLeg
	{
		OFFSET -19.899099 -7.885101 -3.429500
		CHANNELS 3 Xrotation Yrotation Zrotation
		JOINT RightLeg
		{
			OFFSET -1.745560 -36.997807 10.304700
			CHANNELS 3 Xrotation Yrotation Zrotation
			JOINT RightFoot
			{
				OFFSET 1.745558 -29.803308 -13.615400
				CHANNELS 3 Xrotation Yrotation Zrotation
				JOINT RightToeBase
				{
					OFFSET -1.181900 -18.539904 15.226099
					CHANNELS 3 Xrotation Yrotation Zrotation
					JOINT RightToe_End
					{
						OFFSET 0.863701 1.402801 16.534700
						CHANNELS 3 Xrotation Yrotation Zrotation
						End Site
						{
							OFFSET 0.000000 16.616566 0.000000
						}
					}
				}
			}
		}
	}
}
MOTION
Frames: 4
Frame Time: 0.033333
-0.123569 42.884407 -4.116669 17.991355 -3.264662 -3.075128 2.362310 0.482683 0.660503 2.930043 0.334370 0.656143 2.926587 0.321497 0.683319 -20.825513 -1.901464 2.933230 4.896708 2.462483 -2.182604 0.000000 0.000000 0.000000 -1.755236 -6.035072 -1.563949 -17.388777 7.920054 -51.798092 0.000118 -97.342551 0.000008 -6.694205 4.107429 1.105116 0.699764 -6.020122 19.223926 15.918196 20.653217 2.508674 2.716042 -2.667491 4.389096 0.000001 0.000001 -0.000002 1.608240 10.167753 -44.264926 0.580827 2.545164 -25.706641 0.088265 1.014179 -9.947789 0.000001 0.000001 -0.000000 0.769250 5.195495 -34.016360 0.966572 3.225198 -33.358767 0.524456 2.424664 -24.406202 -0.000000 0.000003 0.000002 0.636403 4.890749 -23.832103 1.327958 3.715532 -39.323236 0.457607 2.271723 -22.774888 -0.000001 0.000001 0.000006 -0.723316 0.701242 -17.341449 0.753617 2.876237 -29.358755 0.253282 1.705604 -16.892407 -0.000001 0.000003 0.000001 -0.022144 8.907097 -1.611603 -19.775756 -7.194627 58.923543 -0.001767 90.993419 0.002436 -17.371113 -4.437209 -4.473977 -13.495584 -11.552040 -5.371134 9.647448 -12.885307 -10.896935 2.467287 1.050657 -27.948009 0.000005 0.000000 0.000005 -0.004659 -1.532300 17.306455 0.624544 -2.331536 29.987030 0.157398 -1.201862 14.923905 -0.000001 -0.000001 0.000001 -2.447144 2.303873 24.373047 0.945996 -2.815586 37.137142 0.547237 -2.192235 28.028813 -0.000001 0.000001 -0.000009 -4.294497 0.433419 43.742492 0.363866 -1.806364 22.776808 0.311975 -1.677452 21.069202 -0.000000 -0.000001 0.000002 -7.407884 3.578501 44.464921 0.609140 -2.304690 29.606818 0.124348 -1.070053 13.255055 0.000001 -0.000001 0.000004 -82.679959 -15.493804 42.865905 110.469403 -26.014254 -9.674263 -38.822771 -2.936730 2.965911 -1.387812 -0.000002 0.000003 -0.000000 0.000001 0.000000 -87.877419 8.338198 -27.554554 107.512375 18.898746 5.377590 -34.340747 1.050595 0.458485 -1.487079 -0.000007 -0.000006 -0.000000 -0.000001 -0.000000 
-0.090418 46.398476 -4.571499 17.942893 -3.174841 -2.975990 2.167437 0.425264 0.579962 2.742038 0.298021 0.561776 2.738673 0.290056 0.585867 -20.602748 -2.047413 3.270927 4.343727 2.612679 -2.577411 0.000000 0.000000 0.000000 -1.405356 -6.495539 -2.320538 -14.699064 5.595988 -50.438751 0.000056 -93.842196 0.000050 -4.670375 2.569046 0.775458 0.699763 -6.020121 19.223921 16.046852 20.937858 2.356383 2.597322 -2.996033 4.808388 0.000001 0.000002 0.000002 1.796084 10.331222 -44.892470 0.584185 2.552137 -25.782166 0.087957 1.012453 -9.930557 0.000003 -0.000001 -0.000002 0.873024 5.354672 -34.530503 0.969192 3.229184 -33.405496 0.525072 2.426012 -24.420727 -0.000004 -0.000002 0.000005 0.697232 5.024868 -24.050978 1.330790 3.718971 -39.367134 0.458684 2.274325 -22.802417 -0.000003 -0.000002 0.000004 -0.664445 0.948991 -17.622006 0.755832 2.880174 -29.403063 0.258240 1.721865 -17.058385 -0.000001 0.000002 0.000006 0.384693 9.845175 -0.942711 -17.308446 -5.938967 56.059290 0.002718 88.713775 -0.002346 -16.029491 -4.328716 -2.645749 -13.495585 -11.552042 -5.371134 10.328858 -14.440026 -10.173909 2.492738 0.456296 -27.390607 0.000002 0.000000 0.000002 0.002567 -1.682013 18.017887 0.627511 -2.336661 30.059984 0.158331 -1.205305 14.967634 -0.000000 -0.000001 -0.000001 -2.441258 2.172460 24.761756 0.946265 -2.815947 37.142634 0.548615 -2.194811 28.064692 0.000002 0.000003 -0.000008 -4.292417 0.343295 44.164317 0.360275 -1.797798 22.662467 0.313061 -1.680250 21.106154 -0.000000 0.000000 -0.000002 -7.465369 3.523072 44.825241 0.603516 -2.294757 29.466341 0.124734 -1.071773 13.276711 0.000001 -0.000001 0.000004 -79.689183 -12.748993 38.259779 106.336592 -21.319537 -7.915802 -39.355045 -0.846347 0.586716 -1.356110 0.000002 -0.000003 0.000000 0.000002 0.000000 -84.121088 6.605751 -24.995451 102.572318 16.054276 4.641123 -33.805113 -0.083628 2.032755 -1.320153 0.000000 -0.000001 -0.000000 0.000000 -0.000001 
-0.019507 50.191498 -4.845594 17.391501 -3.037276 -2.813913 1.998826 0.406451 0.501316 2.612212 0.316212 0.450726 2.608836 0.313812 0.473703 -20.321177 -2.159233 3.465176 4.407613 2.549986 -2.770928 -0.000000 -0.000000 0.000000 -0.851213 -7.739288 -3.335574 -12.152716 3.451541 -48.652301 -0.002243 -89.530652 -0.002100 -2.437593 1.030371 0.521039 0.699761 -6.020123 19.223921 16.275144 21.429853 2.088848 2.468372 -3.370499 5.320253 0.000001 0.000003 0.000002 1.952715 10.444458 -45.558704 0.583661 2.551065 -25.770729 0.088039 1.012885 -9.934705 -0.000000 0.000001 -0.000007 0.941245 5.458477 -35.078424 0.972459 3.234066 -33.462883 0.525239 2.426420 -24.425153 -0.000003 0.000003 0.000002 0.761749 5.161784 -24.423168 1.334930 3.724010 -39.430866 0.460085 2.277645 -22.837660 -0.000002 0.000001 0.000007 -0.624483 1.131176 -17.914215 0.760947 2.889201 -29.504464 0.258666 1.723198 -17.072109 0.000003 0.000002 -0.000003 0.926810 11.023192 -0.487008 -14.570267 -4.564475 53.151245 0.000283 85.681793 -0.000319 -14.064070 -3.751936 -1.281682 -13.495586 -11.552037 -5.371134 10.942330 -15.757236 -9.527499 2.524172 -0.177184 -26.763406 0.000001 0.000000 -0.000001 0.017930 -1.838865 18.514957 0.620179 -2.323963 29.879998 0.159203 -1.208582 15.009330 -0.000004 -0.000003 -0.000001 -2.392423 2.016582 24.921333 0.944970 -2.814238 37.116372 0.549217 -2.195949 28.080624 0.000001 0.000001 -0.000006 -4.230386 0.247641 44.312153 0.357764 -1.791775 22.582291 0.314413 -1.683736 21.151974 -0.000001 -0.000004 -0.000005 -7.384933 3.387834 44.981331 0.598506 -2.285843 29.340806 0.125365 -1.074365 13.309521 -0.000000 0.000001 -0.000001 -75.942141 -9.942093 34.579663 101.327933 -17.340906 -6.545985 -38.789542 0.700604 -1.264411 -1.315147 -0.000012 0.000001 0.000000 -0.000000 0.000000 -79.576157 5.068798 -23.079137 97.084712 13.734814 4.137514 -32.791888 -0.887789 3.239223 -1.167984 0.000006 0.000002 0.000000 -0.000001 -0.000000 
0.053187 54.110870 -4.938946 16.430975 -2.853061 -2.768010 1.841183 0.389019 0.450619 2.506554 0.330676 0.371646 2.503141 0.332349 0.393171 -20.046516 -2.212663 3.485888 5.236265 2.326851 -2.556032 0.000001 -0.000000 0.000000 -0.216186 -9.514031 -4.462138 -9.648631 1.298116 -46.993662 0.000381 -84.410756 0.000368 -0.214296 -0.235288 0.647210 0.699754 -6.020119 19.223923 16.523472 21.952313 1.799285 2.357451 -3.710700 5.799309 -0.000002 -0.000001 -0.000001 2.151601 10.601934 -46.262148 0.590295 2.564713 -25.918941 0.087731 1.011126 -9.917278 0.000002 -0.000000 -0.000001 1.105565 5.692583 -35.673299 0.977490 3.241722 -33.552485 0.524691 2.425197 -24.411841 -0.000003 0.000002 0.000002 0.898639 5.445390 -24.963973 1.341026 3.731413 -39.524806 0.462545 2.283468 -22.899422 -0.000001 0.000000 0.000006 -0.544886 1.456119 -18.369162 0.771855 2.908403 -29.720475 0.263087 1.737513 -17.218497 0.000003 0.000003 -0.000003 1.519626 12.703126 0.051834 -11.585214 -3.101080 50.347650 0.000293 81.913653 -0.000295 -11.662456 -2.903355 -0.550055 -13.495594 -11.552041 -5.371131 11.319999 -16.513251 -9.139667 2.541657 -0.450029 -26.487557 -0.000001 -0.000001 0.000001 0.036621 -1.975603 18.771935 0.612209 -2.310066 29.682581 0.160394 -1.212903 15.064457 0.000001 -0.000003 -0.000001 -2.300335 1.819631 24.895913 0.943038 -2.811668 37.076743 0.549519 -2.196549 28.088757 -0.000001 -0.000002 -0.000006 -4.095657 0.126287 44.212159 0.354567 -1.784051 22.479848 0.315471 -1.686465 21.187996 -0.000001 0.000001 -0.000003 -7.121129 3.125166 44.932335 0.593104 -2.276227 29.205220 0.125356 -1.074449 13.310426 0.000004 -0.000000 0.000006 -71.643316 -7.391206 31.874034 95.716044 -14.293463 -5.582995 -37.419260 1.733585 -2.645454 -1.235172 0.000003 0.000001 0.000000 -0.000001 0.000001 -74.396107 3.490203 -21.605241 91.184883 11.903929 3.822052 -31.482381 -1.424781 4.127062 -1.014169 -0.000000 -0.000010 0.000000 0.000000 -0.000000 
